# xmcd CD database file
#
# Track frame offsets:
#	150
#	16264
#	29820
#	47770
#	60031
#	75348
#	82477
#	98234
#	112392
#	122261
#	134946
#	145428
#
# Disc length: 2121 seconds
#
# Revision: 0
# Processed by: cddbd v1.5.2PL0 Copyright (c) Steve Scherf et al.
# Submitted via: CDex 1.70beta2
#
DISCID=aa08470c
DTITLE=Zé Vieira e Zeninha - Terra Abençoada
DYEAR=1900
DGENRE=Country
TTITLE0=Festival de Inverno
TTITLE1=Xote da Comadre
TTITLE2=Cuide Bem do Pé de Cedro
TTITLE3=Amanhecer na Roça
TTITLE4=O Vai e Vem do Amor
TTITLE5=Dois Laços
TTITLE6=A Jornada dos Meus Sonhos
TTITLE7=Pagode Bom
TTITLE8=Terra Abençoada
TTITLE9=Casal Feliz
TTITLE10=Paraguaia
TTITLE11=Venha Conhecer Campo Grande
EXTD=
EXTT0=
EXTT1=
EXTT2=
EXTT3=
EXTT4=
EXTT5=
EXTT6=
EXTT7=
EXTT8=
EXTT9=
EXTT10=
EXTT11=
PLAYORDER=
